<?xml version="1.0" standalone="no"?>
<!DOCTYPE svg PUBLIC "-//W3C//DTD SVG 20010904//EN"
 "http://www.w3.org/TR/2001/REC-SVG-20010904/DTD/svg10.dtd">
<svg version="1.0" xmlns="http://www.w3.org/2000/svg"
 width="900.000000pt" height="900.000000pt" viewBox="0 0 900.000000 900.000000"
 preserveAspectRatio="xMidYMid meet">
<metadata>
Created by potrace 1.10, written by Peter Selinger 2001-2011
</metadata>
<g transform="translate(0.000000,900.000000) scale(0.100000,-0.100000)"
fill="#000000" stroke="none">
<path d="M4278 8127 c-18 -5 -55 -12 -83 -17 -69 -12 -121 -28 -180 -55 -27
-12 -57 -25 -65 -29 -18 -8 -38 -20 -115 -70 -59 -38 -245 -219 -245 -238 0
-6 -13 -27 -28 -47 -31 -40 -77 -132 -87 -174 -4 -15 -11 -30 -16 -33 -5 -3
-9 -18 -9 -34 0 -16 -5 -41 -12 -57 -7 -17 -10 -77 -9 -155 l2 -127 -35 -15
c-26 -11 -83 -15 -231 -15 -219 -1 -250 -9 -315 -76 -47 -49 -62 -95 -69 -217
-4 -64 -11 -112 -19 -120 -8 -8 -12 -47 -12 -117 -1 -73 -5 -114 -15 -131 -10
-17 -14 -57 -15 -121 0 -62 -5 -109 -15 -132 -9 -22 -15 -69 -15 -119 0 -46
-7 -101 -15 -123 -9 -25 -12 -58 -8 -90 3 -32 -1 -74 -11 -114 -9 -34 -16 -93
-16 -131 0 -38 -7 -98 -15 -134 -8 -35 -14 -91 -14 -123 1 -32 -3 -78 -9 -103
-6 -25 -11 -80 -12 -123 0 -43 -5 -88 -12 -100 -6 -13 -11 -59 -10 -106 0 -56
-4 -94 -14 -112 -9 -19 -14 -61 -14 -132 0 -75 -4 -108 -15 -123 -20 -27 -20
-147 0 -164 8 -7 15 -21 15 -31 0 -20 103 -129 123 -129 6 -1 30 -9 52 -20 39
-19 80 -19 1684 -20 1621 0 1645 0 1685 20 45 22 104 73 130 111 23 36 25 335
2 401 -10 30 -14 78 -14 139 1 56 -3 103 -10 116 -7 12 -12 62 -12 116 0 55
-6 115 -16 146 -10 36 -13 69 -9 105 5 34 1 72 -9 113 -9 33 -16 96 -16 139 0
44 -7 112 -15 152 -9 44 -13 92 -9 120 4 31 1 62 -10 92 -10 29 -16 81 -16
145 -1 68 -5 108 -15 125 -10 17 -14 58 -15 133 0 66 -5 117 -12 130 -7 13
-13 66 -14 122 -1 62 -8 119 -18 148 -9 26 -16 74 -16 107 0 32 -4 62 -10 65
-5 3 -10 15 -10 26 0 24 -72 103 -114 125 -26 14 -64 16 -242 14 -243 -2 -244
-1 -244 78 0 26 -5 76 -11 112 -6 36 -13 81 -14 100 -4 40 -27 126 -38 136 -4
4 -7 17 -7 29 0 13 -7 28 -15 35 -8 7 -15 19 -15 26 0 24 -103 167 -175 243
-78 82 -210 182 -275 207 -8 3 -22 10 -30 15 -8 5 -22 12 -30 15 -8 3 -23 10
-32 15 -10 5 -26 9 -35 9 -10 0 -31 7 -47 15 -15 8 -39 15 -53 15 -13 0 -43 4
-66 10 -56 13 -208 17 -249 7z m230 -313 c19 -8 44 -14 55 -14 28 0 82 -19
137 -49 25 -13 59 -32 77 -41 32 -17 163 -142 163 -155 0 -4 14 -27 30 -52 17
-24 30 -48 30 -54 0 -5 9 -29 20 -51 11 -23 20 -55 20 -70 0 -16 7 -43 16 -60
22 -42 12 -148 -16 -181 l-20 -23 -646 2 c-355 1 -650 6 -654 11 -15 16 -18
209 -4 234 7 13 13 35 14 47 0 50 90 192 167 266 41 39 80 73 86 75 7 2 22 12
35 22 13 10 44 27 70 39 26 12 55 26 64 31 10 5 29 9 42 9 13 0 38 6 56 13 44
19 214 20 258 1z m32 -1236 c52 -25 102 -49 110 -52 8 -3 22 -10 30 -14 36
-21 64 -35 220 -112 161 -80 210 -103 240 -114 8 -3 22 -10 30 -15 8 -5 49
-25 90 -44 41 -19 100 -47 131 -61 31 -14 61 -26 66 -26 6 0 16 -7 23 -15 7
-8 23 -15 35 -15 12 0 28 -7 35 -15 7 -8 20 -15 30 -15 10 0 23 -7 30 -15 7
-8 18 -15 24 -15 13 0 68 -27 108 -53 51 -35 44 -71 -19 -105 -21 -11 -51 -27
-68 -36 -71 -38 -207 -96 -227 -96 -11 0 -36 11 -54 25 -18 14 -43 25 -56 25
-13 0 -33 7 -44 15 -10 8 -39 15 -64 15 -26 0 -51 5 -57 11 -6 6 -35 13 -64
15 -29 2 -57 8 -63 14 -5 5 -25 10 -43 10 -18 0 -51 7 -73 16 -22 9 -47 13
-56 10 -8 -3 -28 1 -44 9 -16 8 -44 15 -62 15 -18 0 -52 7 -75 15 -23 8 -49
12 -58 9 -8 -4 -26 1 -40 10 -13 9 -32 16 -42 16 -10 1 -34 14 -53 30 -28 25
-43 30 -85 30 -30 0 -59 -6 -71 -15 -10 -8 -27 -15 -37 -15 -10 0 -31 -10 -47
-22 -26 -19 -30 -28 -30 -73 0 -28 6 -58 13 -66 6 -8 44 -36 84 -62 55 -36 80
-47 111 -47 23 0 44 5 47 10 8 13 91 13 116 0 11 -6 39 -12 62 -14 23 -1 52
-8 64 -14 12 -7 41 -12 65 -12 24 0 52 -7 62 -15 11 -8 41 -15 66 -15 25 0 55
-7 66 -15 10 -8 39 -15 65 -15 52 0 69 -13 69 -51 0 -20 -6 -30 -22 -35 -18
-5 -239 -112 -298 -144 -18 -9 -79 -36 -100 -44 -15 -6 -25 -11 -65 -34 -11
-7 -27 -15 -35 -18 -8 -3 -54 -26 -102 -50 -49 -24 -96 -44 -106 -44 -17 0
-124 46 -162 70 -8 5 -52 27 -97 50 -45 22 -85 45 -88 50 -3 6 -15 10 -25 10
-10 0 -20 4 -22 8 -6 16 -241 142 -264 142 -6 0 -17 7 -24 15 -22 27 -55 18
-83 -22 -23 -34 -25 -45 -20 -95 7 -65 20 -81 101 -123 29 -15 55 -31 58 -36
3 -5 13 -9 23 -9 10 0 24 -7 31 -15 7 -8 18 -15 25 -15 7 0 62 -27 121 -60 59
-33 113 -60 120 -60 7 0 15 -4 18 -9 6 -9 168 -91 230 -116 21 -8 52 -15 69
-15 25 0 168 59 217 91 8 5 21 11 28 14 30 12 40 17 97 50 64 37 381 194 480
239 33 15 74 28 90 29 l30 2 3 -266 2 -266 -33 -26 c-27 -21 -305 -160 -447
-224 -19 -9 -42 -20 -50 -25 -8 -4 -22 -11 -30 -14 -8 -3 -28 -12 -45 -19 -16
-8 -37 -16 -45 -19 -8 -3 -22 -10 -30 -15 -8 -5 -26 -13 -40 -19 -14 -5 -56
-23 -95 -39 -77 -31 -154 -36 -196 -12 -13 8 -31 14 -40 15 -16 1 -84 29 -142
59 -16 8 -34 15 -42 15 -7 0 -18 7 -25 15 -7 8 -22 15 -34 15 -12 0 -26 4 -31
9 -6 5 -32 18 -60 29 -72 29 -301 136 -345 162 -8 5 -37 19 -64 31 -57 26
-113 79 -122 116 -4 15 -2 59 5 97 7 39 16 134 19 211 4 77 12 149 18 160 10
16 20 191 15 241 -1 12 -80 62 -161 102 -25 13 -52 27 -60 32 -8 5 -22 11 -30
14 -8 3 -22 10 -30 15 -8 5 -37 20 -65 32 -63 29 -125 79 -125 102 0 10 8 26
18 37 21 22 194 110 336 170 54 23 106 45 115 50 57 30 148 70 157 70 7 0 17
7 24 15 7 8 19 15 28 15 8 0 52 18 98 40 46 22 87 40 92 40 5 0 33 12 63 26
288 139 336 161 371 169 15 4 33 14 40 22 21 25 94 11 198 -39z"/>
<path d="M3516 3840 c-174 -81 -179 -289 -9 -383 44 -24 142 -23 192 3 99 50
142 153 109 262 -32 106 -185 168 -292 118z"/>
<path d="M5755 3842 c-100 -42 -129 -86 -130 -194 0 -69 3 -80 30 -120 73
-103 240 -119 336 -32 84 76 79 251 -9 311 -82 55 -154 66 -227 35z"/>
<path d="M117 3644 c-4 -4 -7 -251 -7 -548 0 -567 3 -613 47 -731 57 -149 149
-264 262 -328 125 -71 231 -97 401 -97 133 0 201 12 310 52 130 49 278 188
326 308 71 179 69 156 69 780 l0 565 -155 3 c-85 1 -165 0 -177 -3 l-22 -5 -3
-548 c-4 -517 -5 -550 -24 -597 -33 -83 -52 -112 -98 -151 -61 -50 -133 -74
-227 -74 -173 0 -276 81 -329 260 -10 34 -15 174 -19 580 l-6 535 -171 3 c-93
1 -173 -1 -177 -4z"/>
<path d="M2490 3265 c-79 -14 -185 -63 -229 -104 -18 -17 -37 -31 -42 -31 -4
0 -9 28 -11 63 l-3 62 -165 0 -165 0 0 -640 0 -640 170 0 170 0 6 365 c3 201
10 381 16 400 16 57 42 100 88 144 35 35 56 45 114 59 102 25 179 8 240 -54
66 -65 65 -63 71 -509 l5 -405 178 -3 177 -2 0 416 c0 500 -7 552 -99 693 -63
97 -164 161 -296 187 -81 16 -135 16 -225 -1z"/>
<path d="M4705 3265 c-79 -16 -137 -43 -205 -95 l-55 -41 -5 63 -5 63 -165 0
-165 0 -3 -855 c-1 -470 0 -865 3 -877 5 -23 7 -23 174 -23 145 0 170 2 175
16 3 9 6 139 6 290 0 230 2 274 14 274 8 0 16 -3 18 -8 5 -13 81 -66 118 -83
34 -16 93 -31 173 -45 54 -9 220 24 289 57 126 61 225 160 282 283 52 110 61
158 61 326 0 154 -10 221 -41 282 -8 14 -14 31 -14 37 0 25 -68 121 -130 182
-91 91 -164 129 -300 154 -89 17 -143 17 -225 0z m189 -327 c61 -31 104 -77
137 -146 28 -61 31 -74 31 -176 0 -83 -4 -122 -18 -156 -60 -151 -199 -229
-350 -196 -71 15 -126 51 -170 110 -53 72 -66 119 -66 241 0 96 3 117 25 167
46 101 118 162 212 179 59 11 154 -1 199 -23z"/>
<path d="M6960 3265 c-74 -15 -135 -36 -152 -53 -7 -7 -16 -12 -21 -12 -6 0
-30 -16 -54 -36 -48 -40 -51 -38 -55 41 l-3 50 -165 0 -165 0 0 -640 0 -640
170 0 170 0 6 370 c6 437 12 464 104 542 135 112 334 80 403 -65 15 -33 18
-85 22 -442 l5 -405 175 0 175 0 3 405 c2 344 0 416 -14 480 -16 74 -37 141
-55 170 -5 8 -14 26 -19 38 -18 41 -116 129 -177 158 -107 50 -228 64 -353 39z"/>
<path d="M8220 3265 c-124 -21 -177 -42 -255 -100 -61 -45 -79 -65 -116 -130
-33 -59 -34 -62 -34 -180 1 -105 3 -125 23 -160 47 -85 154 -164 252 -186 19
-4 55 -12 80 -18 25 -5 90 -17 145 -27 160 -26 225 -62 225 -122 -1 -83 -129
-125 -315 -102 -99 12 -163 29 -247 68 -36 17 -70 32 -77 34 -13 3 -111 -214
-111 -248 0 -22 7 -27 125 -78 62 -28 197 -56 341 -72 69 -7 252 17 319 43
149 56 219 116 271 233 22 49 25 66 21 150 -4 106 -18 151 -66 210 -57 71
-167 120 -346 154 -97 18 -181 35 -215 43 -14 3 -40 16 -57 30 -28 21 -33 30
-33 67 0 49 22 75 82 101 99 41 371 3 450 -63 28 -24 31 -19 115 168 8 19 19
43 25 53 25 49 -102 102 -312 132 -122 17 -186 17 -290 0z"/>
<path d="M3435 3248 c-3 -7 -4 -296 -3 -643 l3 -630 164 -3 c125 -2 166 1 173
10 9 15 11 1238 2 1262 -5 14 -30 16 -170 16 -123 0 -166 -3 -169 -12z"/>
<path d="M5667 3253 c-4 -3 -7 -294 -7 -645 l0 -638 175 2 176 3 0 633 c0 348
-3 637 -6 642 -7 11 -328 14 -338 3z"/>
</g>
</svg>
